Coordinates
version=1
nRows=14
nColumns=24
inDegrees=yes

Units are S.I. units (second, meters, Newtons, ...)
Angles are in degrees.

endheader
time	pelvis_tilt	pelvis_list	pelvis_rotation	pelvis_tx	pelvis_ty	pelvis_tz	hip_flexion_r	hip_adduction_r	hip_rotation_r	knee_angle_r	ankle_angle_r	subtalar_angle_r	mtp_angle_r	hip_flexion_l	hip_adduction_l	hip_rotation_l	knee_angle_l	ankle_angle_l	subtalar_angle_l	mtp_angle_l	lumbar_extension	lumbar_bending	lumbar_rotation
      4.28000000	      2.18641767	     -0.71723821	     -0.83877147	     -1.89716286	      0.96271830	      0.20524047	     22.74739827	      0.04361672	     -5.30063577	    -62.36317370	     -4.13108500	     -6.86055852	      0.00000000	      4.10338169	      5.93239251	      2.47350842	    -13.51532092	     13.65946299	      2.32443980	      0.00000000	    -19.64441435	      1.87503718	     -5.06207506
      4.29000000	      2.10094356	     -0.67080301	     -0.54466708	     -1.88459502	      0.96316608	      0.20462074	     23.96150134	      0.07387797	     -5.37728164	    -60.81342743	     -2.74518238	     -6.06114119	      0.00000000	      3.07357792	      6.03620980	      2.86068642	    -12.96493080	     13.80365253	      2.18338877	      0.00000000	    -19.57545729	      1.95514268	     -5.20406564
      4.30000000	      2.01470580	     -0.59123693	     -0.24699689	     -1.87200427	      0.96336997	      0.20406292	     25.06010170	      0.08619795	     -5.43175849	    -58.98009069	     -1.49596711	     -5.26298295	      0.00000000	      2.06672486	      6.16559068	      3.26411652	    -12.46305885	     13.98100867	      1.96291643	      0.00000000	    -19.49989573	      1.98388919	     -5.39918871
      4.31000000	      1.93063948	     -0.49631463	      0.09138118	     -1.85936978	      0.96334355	      0.20350587	     26.02329537	      0.08037409	     -5.50348583	    -56.85576834	     -0.45544600	     -4.44552354	      0.00000000	      1.09133026	      6.29636406	      3.67901478	    -12.03798959	     14.26498950	      1.85961677	      0.00000000	    -19.41868335	      1.99882277	     -5.65885111
      4.32000000	      1.85056987	     -0.32657686	      0.40950187	     -1.84666595	      0.96305579	      0.20303774	     26.86685174	      0.00767769	     -5.54260997	    -54.48429678	      0.52433848	     -3.55561553	      0.00000000	      0.11531125	      6.49544156	      4.12038296	    -11.63113037	     14.45477182	      1.69646038	      0.00000000	    -19.33308371	      1.89547893	     -5.87249330
      4.33000000	      1.77485700	     -0.12935588	      0.76491878	     -1.83388874	      0.96251278	      0.20257950	     27.56618509	     -0.09615987	     -5.59442473	    -51.84108641	      1.35884311	     -2.62738369	      0.00000000	     -0.83770938	      6.70950390	      4.60569681	    -11.29722684	     14.71713000	      1.53749943	      0.00000000	    -19.23875287	      1.76023916	     -6.15413333
      4.34000000	      1.70429167	      0.09566668	      1.17677815	     -1.82104371	      0.96172314	      0.20210815	     28.11187522	     -0.23935760	     -5.67057010	    -48.92822206	      2.04397491	     -1.63430979	      0.00000000	     -1.76313805	      6.93332552	      5.10721516	    -11.04675504	     15.05340084	      1.45095754	      0.00000000	    -19.14227268	      1.59128182	     -6.51453995
      4.35000000	      1.63473753	      0.35379221	      1.62376790	     -1.80811696	      0.96067500	      0.20165242	     28.50837313	     -0.42625692	     -5.76970734	    -45.75824969	      2.67106505	     -0.56079064	      0.00000000	     -2.67832678	      7.17305248	      5.65195883	    -10.83896847	     15.39937134	      1.38984620	      0.00000000	    -19.03954441	      1.37145112	     -6.88872472
      4.36000000	      1.56499048	      0.63396050	      2.10671879	     -1.79510016	      0.95937005	      0.20119924	     28.75293909	     -0.64827701	     -5.90248405	    -42.33688510	      3.24183566	      0.58014251	      0.00000000	     -3.59070184	      7.41804955	      6.26426492	    -10.66205792	     15.74386147	      1.33408589	      0.00000000	    -18.92621386	      1.11670004	     -7.25863563
      4.37000000	      1.49245406	      0.91460592	      2.64950693	     -1.78201685	      0.95782682	      0.20072059	     28.83399383	     -0.88072777	     -6.06284297	    -38.65230159	      3.66450886	      1.69001960	      0.00000000	     -4.47111871	      7.63922143	      6.87600740	    -10.56439948	     16.16786400	      1.34643134	      0.00000000	    -18.81489466	      0.86443038	     -7.73711507
      4.38000000	      1.41965512	      1.19609652	      3.23049943	     -1.76885387	      0.95605378	      0.20023716	     28.75476694	     -1.12056691	     -6.24470926	    -34.72975229	      3.98374029	      2.73709949	      0.00000000	     -5.33686311	      7.83678678	      7.47929202	    -10.51879272	     16.63857479	      1.42401904	      0.00000000	    -18.71149475	      0.60840591	     -8.26839737
      4.39000000	      1.34781199	      1.47727975	      3.83304910	     -1.75559243	      0.95406431	      0.19976434	     28.51903266	     -1.35929260	     -6.44050633	    -30.59371667	      4.18300577	      3.63758616	      0.00000000	     -6.19521036	      8.01073547	      8.05493252	    -10.51606671	     17.15909901	      1.56349308	      0.00000000	    -18.61955598	      0.34738219	     -8.86296854
      4.40000000	      1.28767940	      1.75447416	      4.44973064	     -1.74223006	      0.95188982	      0.19931489	     28.12353609	     -1.58552166	     -6.63553629	    -26.28165788	      4.30355699	      4.36246067	      0.00000000	     -7.05713591	      8.15653316	      8.61295687	    -10.55882071	     17.70491578	      1.75698360	      0.00000000	    -18.56105645	      0.08773349	     -9.48908326
      4.41000000	      1.25276596	      2.04166003	      5.06804178	     -1.72873592	      0.94955229	      0.19887694	     27.57562559	     -1.81522937	     -6.85160539	    -21.86207011	      4.34205725	      4.86787090	      0.00000000	     -7.94726824	      8.28979506	      9.13879629	    -10.63289174	     18.27288316	      1.99845773	      0.00000000	    -18.54174353	     -0.17745723	    -10.16088496
